<svg xmlns="http://www.w3.org/2000/svg" version="1.1" viewBox="0.00 0.00 200.00 200.00" width="200.00" height="200.00">
<g stroke-width="2.00" fill="none" stroke-linecap="butt">
<path stroke="#98abba" d="&#10;  M 76.34 28.08&#10;  Q 76.27 37.14 76.34 45.74&#10;  Q 76.37 49.25 81.16 51.28"/>
<path stroke="#8ea0b0" d="&#10;  M 81.16 51.28&#10;  L 98.20 60.82"/>
<path stroke="#8692a1" d="&#10;  M 98.20 60.82&#10;  C 98.97 61.49 99.92 61.99 100.88 61.45&#10;  Q 111.06 55.78 120.35 50.55&#10;  Q 123.92 48.53 123.90 45.25&#10;  Q 123.85 36.28 123.89 27.13"/>
<path stroke="#afd0db" d="&#10;  M 123.89 27.13&#10;  Q 123.88 23.73 120.71 21.83&#10;  Q 116.26 19.16 111.77 16.73"/>
<path stroke="#b9dee5" d="&#10;  M 111.77 16.73&#10;  L 100.70 10.49&#10;  A 1.20 1.20 0.0 0 0 99.54 10.49&#10;  Q 89.74 15.98 79.98 21.46&#10;  Q 75.86 23.78 76.34 28.08"/>
<path stroke="#6cafc1" d="&#10;  M 111.77 16.73&#10;  Q 105.43 19.33 100.06 23.43"/>
<path stroke="#b9dee5" d="&#10;  M 100.06 23.43&#10;  L 90.93 28.52&#10;  A 0.48 0.48 0.0 0 0 90.92 29.36&#10;  L 96.29 32.39"/>
<path stroke="#6cafc1" d="&#10;  M 96.29 32.39&#10;  L 90.49 35.59"/>
<path stroke="#558a9f" d="&#10;  M 90.49 35.59&#10;  Q 85.08 32.85 79.82 29.78&#10;  Q 79.08 29.34 78.29 28.59&#10;  Q 76.28 26.68 76.34 28.08"/>
<path stroke="#39637d" d="&#10;  M 123.89 27.13&#10;  Q 120.56 30.01 116.70 31.94&#10;  Q 108.47 36.06 100.23 41.01"/>
<path stroke="#41718c" d="&#10;  M 100.23 41.01&#10;  Q 99.40 40.93 98.14 39.85"/>
<path stroke="#4b7c96" d="&#10;  M 98.14 39.85&#10;  L 90.49 35.59"/>
<path stroke="#afd0db" d="&#10;  M 96.29 32.39&#10;  L 99.03 33.84&#10;  Q 100.11 34.41 101.18 33.81&#10;  L 108.82 29.57&#10;  Q 109.89 28.97 108.82 28.37&#10;  L 100.06 23.43"/>
<path stroke="#294c6a" d="&#10;  M 98.14 39.85&#10;  L 81.16 51.28"/>
<path stroke="#173351" d="&#10;  M 98.20 60.82&#10;  L 99.60 58.75&#10;  Q 99.88 58.33 99.89 57.83&#10;  L 100.23 41.01"/>
<path stroke="#98abba" d="&#10;  M 27.85 70.82&#10;  L 27.89 79.06"/>
<path stroke="#8ea0b0" d="&#10;  M 27.89 79.06&#10;  Q 27.80 84.01 27.86 89.00&#10;  Q 27.90 92.56 28.80 94.39&#10;  C 30.32 97.45 33.73 99.31 36.69 100.83"/>
<path stroke="#8692a1" d="&#10;  M 36.69 100.83&#10;  L 99.59 135.70&#10;  Q 100.08 135.97 100.56 135.70&#10;  Q 132.83 117.78 166.38 99.27&#10;  Q 169.67 97.45 171.27 94.43&#10;  Q 172.35 92.38 172.35 87.91&#10;  Q 172.36 79.32 172.28 70.25"/>
<path stroke="#9cb6c9" d="&#10;  M 172.28 70.25&#10;  Q 171.50 66.66 168.04 64.44&#10;  Q 164.59 62.22 153.28 56.14"/>
<path stroke="#aac9d6" d="&#10;  M 153.28 56.14&#10;  L 139.18 48.26&#10;  A 1.18 1.17 45.3 0 0 138.04 48.25&#10;  L 119.23 58.64&#10;  A 0.45 0.45 0.0 0 0 119.23 59.42&#10;  L 135.56 68.70"/>
<path stroke="#b9dee5" d="&#10;  M 135.56 68.70&#10;  L 100.29 88.59&#10;  Q 100.08 88.71 99.86 88.59&#10;  L 74.49 74.19"/>
<path stroke="#c3f2f5" d="&#10;  M 74.49 74.19&#10;  L 65.52 69.28&#10;  A 0.65 0.65 0.0 0 1 65.34 68.28&#10;  Q 65.50 68.09 65.87 67.88&#10;  Q 73.40 63.65 80.91 59.44&#10;  A 0.49 0.49 0.0 0 0 80.90 58.58&#10;  L 73.31 54.39"/>
<path stroke="#d3f9f9" d="&#10;  M 73.31 54.39&#10;  L 62.11 48.24&#10;  Q 61.59 47.96 61.08 48.24&#10;  Q 46.98 56.05 32.74 63.99&#10;  Q 28.50 66.36 27.85 70.82"/>
<path stroke="#9aecef" d="&#10;  M 73.31 54.39&#10;  L 58.62 66.64"/>
<path stroke="#90d8df" d="&#10;  M 58.62 66.64&#10;  L 57.16 65.05&#10;  Q 56.40 64.23 56.32 65.34&#10;  L 55.80 72.73"/>
<path stroke="#d3f9f9" d="&#10;  M 55.80 72.73&#10;  L 42.72 79.91"/>
<path stroke="#6ea5b4" d="&#10;  M 42.72 79.91&#10;  Q 34.92 76.27 27.85 70.82"/>
<path stroke="#80d1db" d="&#10;  M 74.49 74.19&#10;  C 72.37 73.72 70.45 73.39 68.51 72.31&#10;  Q 63.54 69.54 58.62 66.64"/>
<path stroke="#aac9d6" d="&#10;  M 67.98 86.67&#10;  L 99.99 104.65"/>
<path stroke="#8ea0b0" d="&#10;  M 100.83 111.66&#10;  Q 100.11 112.05 99.39 111.64&#10;  Q 78.00 99.52 56.48 87.65"/>
<path stroke="#4b7f95" d="&#10;  M 133.79 71.52&#10;  L 100.33 90.89"/>
<path stroke="#67a8bc" d="&#10;  M 100.33 90.89&#10;  L 81.83 80.36&#10;  Q 81.40 80.11 80.94 80.33&#10;  L 67.98 86.67"/>
<path stroke="#b9dee5" d="&#10;  M 67.98 86.67&#10;  Q 63.23 84.05 58.67 81.01&#10;  Q 55.84 79.14 55.93 76.77&#10;  Q 55.99 74.83 55.80 72.73"/>
<path stroke="#98abba" d="&#10;  M 42.72 79.91&#10;  L 56.48 87.65"/>
<path stroke="#294c6a" d="&#10;  M 56.48 87.65&#10;  L 52.45 89.53"/>
<path stroke="#294c6a" d="&#10;  M 50.89 88.72&#10;  L 29.34 76.69&#10;  Q 28.88 76.43 28.49 76.79&#10;  Q 27.84 77.38 27.89 79.06"/>
<path stroke="#8ea0b0" d="&#10;  M 144.38 72.84&#10;  C 144.30 78.13 144.42 79.92 139.48 82.69&#10;  Q 119.69 93.78 99.99 104.65"/>
<path stroke="#3c6a87" d="&#10;  M 99.99 104.65&#10;  L 100.33 90.89"/>
<path stroke="#173351" d="&#10;  M 36.69 100.83&#10;  Q 42.25 93.13 50.89 88.72"/>
<path stroke="#213e5b" d="&#10;  M 50.89 88.72&#10;  L 52.45 89.53"/>
<path stroke="#173351" d="&#10;  M 52.45 89.53&#10;  C 66.82 98.52 81.98 106.38 96.71 114.52&#10;  Q 98.30 115.40 100.18 116.04&#10;  A 1.05 1.05 0.0 0 0 101.55 114.81&#10;  L 100.83 111.66"/>
<path stroke="#8692a1" d="&#10;  M 100.83 111.66&#10;  L 157.53 80.15"/>
<path stroke="#25496a" d="&#10;  M 172.28 70.25&#10;  Q 170.18 73.09 168.07 74.32&#10;  Q 164.31 76.52 157.53 80.15"/>
<path stroke="#9cb6c9" d="&#10;  M 157.53 80.15&#10;  L 144.38 72.84"/>
<path stroke="#2d5779" d="&#10;  M 144.38 72.84&#10;  L 143.93 64.65"/>
<path stroke="#4a80a0" d="&#10;  M 153.28 56.14&#10;  L 145.05 60.29&#10;  Q 144.59 60.52 144.51 61.03&#10;  L 143.93 64.65"/>
<path stroke="#3c6a87" d="&#10;  M 143.93 64.65&#10;  L 133.79 71.52"/>
<path stroke="#67a8bc" d="&#10;  M 133.79 71.52&#10;  Q 134.45 69.21 135.56 68.70"/>
<path stroke="#8ea0b0" d="&#10;  M 100.54 68.75&#10;  A 0.96 0.94 44.4 0 1 99.61 68.75&#10;  L 88.57 62.67&#10;  A 0.95 0.93 44.4 0 0 87.68 62.67&#10;  L 78.07 68.04&#10;  A 0.35 0.35 0.0 0 0 78.07 68.65&#10;  L 99.41 80.61&#10;  A 1.35 1.35 0.0 0 0 100.73 80.61&#10;  Q 121.38 69.09 121.91 68.73&#10;  Q 122.58 68.26 121.86 67.87&#10;  Q 116.89 65.14 112.46 62.65&#10;  A 0.87 0.86 45.3 0 0 111.60 62.64&#10;  L 100.54 68.75"/>
<path stroke="#baf1e9" d="&#10;  M 27.88 128.98&#10;  Q 27.77 136.24 27.83 143.39&#10;  C 27.87 148.91 31.80 152.29 36.55 154.43"/>
<path stroke="#b9dee5" d="&#10;  M 36.55 154.43&#10;  L 42.23 157.60"/>
<path stroke="#addddf" d="&#10;  M 42.23 157.60&#10;  L 62.12 168.87"/>
<path stroke="#a4d0d8" d="&#10;  M 62.12 168.87&#10;  L 73.16 175.10"/>
<path stroke="#9ec4d1" d="&#10;  M 73.16 175.10&#10;  L 99.86 190.24"/>
<path stroke="#8fa7c5" d="&#10;  M 99.86 190.24&#10;  Q 144.98 165.16 166.87 152.65&#10;  Q 169.75 151.01 171.24 148.12&#10;  Q 172.30 146.06 172.31 142.21&#10;  Q 172.34 134.64 172.33 126.96"/>
<path stroke="#95b1d6" d="&#10;  M 172.33 126.96&#10;  Q 172.50 121.12 167.22 118.04&#10;  Q 162.26 115.14 157.41 112.52&#10;  A 1.50 1.48 44.6 0 0 156.00 112.52&#10;  L 143.94 119.11"/>
<path stroke="#8fa7c5" d="&#10;  M 143.94 119.11&#10;  L 100.01 143.37"/>
<path stroke="#9ec4d1" d="&#10;  M 100.01 143.37&#10;  L 96.30 141.25"/>
<path stroke="#a4d0d8" d="&#10;  M 96.30 141.25&#10;  L 85.48 135.18"/>
<path stroke="#addddf" d="&#10;  M 85.48 135.18&#10;  L 57.21 119.57"/>
<path stroke="#c3f2f5" d="&#10;  M 57.21 119.57&#10;  L 44.35 112.54&#10;  Q 43.46 112.05 42.57 112.54&#10;  Q 37.88 115.10 32.69 117.96&#10;  Q 26.80 121.20 27.88 128.98"/>
<path stroke="#74d0d5" d="&#10;  M 57.21 119.57&#10;  L 55.83 126.63"/>
<path stroke="#c3f2f5" d="&#10;  M 55.83 126.63&#10;  L 43.11 133.65&#10;  A 0.36 0.36 0.0 0 0 43.10 134.28&#10;  L 47.53 136.81"/>
<path stroke="#80d1db" d="&#10;  M 47.53 136.81&#10;  L 47.27 139.26"/>
<path stroke="#81e4df" d="&#10;  M 47.27 139.26&#10;  Q 42.88 137.56 38.57 135.60&#10;  C 34.69 133.83 31.42 131.39 27.88 128.98"/>
<path stroke="#77d0ce" d="&#10;  M 47.27 139.26&#10;  Q 50.13 141.00 51.83 143.10&#10;  A 2.57 2.56 -41.6 0 1 51.62 146.56&#10;  C 47.90 150.15 41.35 152.55 36.55 154.43"/>
<path stroke="#a4d0d8" d="&#10;  M 70.74 142.78&#10;  L 84.20 150.47"/>
<path stroke="#9ec4d1" d="&#10;  M 84.20 150.47&#10;  L 99.77 159.55"/>
<path stroke="#9ec4d1" d="&#10;  M 100.39 166.57&#10;  L 90.53 161.11"/>
<path stroke="#a4d0d8" d="&#10;  M 90.53 161.11&#10;  L 79.19 154.77"/>
<path stroke="#addddf" d="&#10;  M 79.19 154.77&#10;  L 65.50 146.99"/>
<path stroke="#b9dee5" d="&#10;  M 65.50 146.99&#10;  L 47.53 136.81"/>
<path stroke="#55aeb8" d="&#10;  M 85.48 135.18&#10;  L 70.74 142.78"/>
<path stroke="#addddf" d="&#10;  M 70.74 142.78&#10;  Q 65.17 139.72 59.64 136.52&#10;  C 55.16 133.93 56.15 131.12 55.83 126.63"/>
<path stroke="#6abcc4" d="&#10;  M 65.50 146.99&#10;  L 42.23 157.60"/>
<path stroke="#27599c" d="&#10;  M 172.33 126.96&#10;  Q 169.00 130.93 164.70 133.45&#10;  Q 132.52 152.23 100.07 170.37"/>
<path stroke="#3675a8" d="&#10;  M 100.07 170.37&#10;  L 100.39 166.57"/>
<path stroke="#95b1d6" d="&#10;  M 100.39 166.57&#10;  L 156.90 134.40&#10;  A 0.47 0.47 0.0 0 0 156.90 133.58&#10;  L 145.01 127.02&#10;  A 0.29 0.29 0.0 0 0 144.58 127.26&#10;  L 144.42 129.58"/>
<path stroke="#27599c" d="&#10;  M 144.42 129.58&#10;  L 143.94 119.11"/>
<path stroke="#8fa7c5" d="&#10;  M 144.42 129.58&#10;  C 144.95 134.74 141.53 135.96 136.96 138.55&#10;  Q 118.38 149.05 99.77 159.55"/>
<path stroke="#306c96" d="&#10;  M 99.77 159.55&#10;  L 100.01 143.37"/>
<path stroke="#4694aa" d="&#10;  M 96.30 141.25&#10;  L 84.20 150.47"/>
<path stroke="#55aeb8" d="&#10;  M 79.19 154.77&#10;  Q 81.66 159.01 78.74 161.33&#10;  Q 72.01 166.65 62.12 168.87"/>
<path stroke="#4694aa" d="&#10;  M 90.53 161.11&#10;  C 91.23 163.29 91.85 165.49 89.91 166.68&#10;  Q 82.82 170.99 73.16 175.10"/>
<path stroke="#306c96" d="&#10;  M 99.86 190.24&#10;  L 100.07 170.37"/>
</g>
<path fill="#fcffff" d="&#10;  M 200.00 0.00&#10;  L 200.00 200.00&#10;  L 0.00 200.00&#10;  L 0.00 0.00&#10;  L 200.00 0.00&#10;  Z&#10;  M 76.34 28.08&#10;  Q 76.27 37.14 76.34 45.74&#10;  Q 76.37 49.25 81.16 51.28&#10;  L 98.20 60.82&#10;  C 98.97 61.49 99.92 61.99 100.88 61.45&#10;  Q 111.06 55.78 120.35 50.55&#10;  Q 123.92 48.53 123.90 45.25&#10;  Q 123.85 36.28 123.89 27.13&#10;  Q 123.88 23.73 120.71 21.83&#10;  Q 116.26 19.16 111.77 16.73&#10;  L 100.70 10.49&#10;  A 1.20 1.20 0.0 0 0 99.54 10.49&#10;  Q 89.74 15.98 79.98 21.46&#10;  Q 75.86 23.78 76.34 28.08&#10;  Z&#10;  M 27.85 70.82&#10;  L 27.89 79.06&#10;  Q 27.80 84.01 27.86 89.00&#10;  Q 27.90 92.56 28.80 94.39&#10;  C 30.32 97.45 33.73 99.31 36.69 100.83&#10;  L 99.59 135.70&#10;  Q 100.08 135.97 100.56 135.70&#10;  Q 132.83 117.78 166.38 99.27&#10;  Q 169.67 97.45 171.27 94.43&#10;  Q 172.35 92.38 172.35 87.91&#10;  Q 172.36 79.32 172.28 70.25&#10;  Q 171.50 66.66 168.04 64.44&#10;  Q 164.59 62.22 153.28 56.14&#10;  L 139.18 48.26&#10;  A 1.18 1.17 45.3 0 0 138.04 48.25&#10;  L 119.23 58.64&#10;  A 0.45 0.45 0.0 0 0 119.23 59.42&#10;  L 135.56 68.70&#10;  L 100.29 88.59&#10;  Q 100.08 88.71 99.86 88.59&#10;  L 74.49 74.19&#10;  L 65.52 69.28&#10;  A 0.65 0.65 0.0 0 1 65.34 68.28&#10;  Q 65.50 68.09 65.87 67.88&#10;  Q 73.40 63.65 80.91 59.44&#10;  A 0.49 0.49 0.0 0 0 80.90 58.58&#10;  L 73.31 54.39&#10;  L 62.11 48.24&#10;  Q 61.59 47.96 61.08 48.24&#10;  Q 46.98 56.05 32.74 63.99&#10;  Q 28.50 66.36 27.85 70.82&#10;  Z&#10;  M 100.54 68.75&#10;  A 0.96 0.94 44.4 0 1 99.61 68.75&#10;  L 88.57 62.67&#10;  A 0.95 0.93 44.4 0 0 87.68 62.67&#10;  L 78.07 68.04&#10;  A 0.35 0.35 0.0 0 0 78.07 68.65&#10;  L 99.41 80.61&#10;  A 1.35 1.35 0.0 0 0 100.73 80.61&#10;  Q 121.38 69.09 121.91 68.73&#10;  Q 122.58 68.26 121.86 67.87&#10;  Q 116.89 65.14 112.46 62.65&#10;  A 0.87 0.86 45.3 0 0 111.60 62.64&#10;  L 100.54 68.75&#10;  Z&#10;  M 27.88 128.98&#10;  Q 27.77 136.24 27.83 143.39&#10;  C 27.87 148.91 31.80 152.29 36.55 154.43&#10;  L 42.23 157.60&#10;  L 62.12 168.87&#10;  L 73.16 175.10&#10;  L 99.86 190.24&#10;  Q 144.98 165.16 166.87 152.65&#10;  Q 169.75 151.01 171.24 148.12&#10;  Q 172.30 146.06 172.31 142.21&#10;  Q 172.34 134.64 172.33 126.96&#10;  Q 172.50 121.12 167.22 118.04&#10;  Q 162.26 115.14 157.41 112.52&#10;  A 1.50 1.48 44.6 0 0 156.00 112.52&#10;  L 143.94 119.11&#10;  L 100.01 143.37&#10;  L 96.30 141.25&#10;  L 85.48 135.18&#10;  L 57.21 119.57&#10;  L 44.35 112.54&#10;  Q 43.46 112.05 42.57 112.54&#10;  Q 37.88 115.10 32.69 117.96&#10;  Q 26.80 121.20 27.88 128.98&#10;  Z"/>
<path fill="#76bdca" d="&#10;  M 111.77 16.73&#10;  Q 105.43 19.33 100.06 23.43&#10;  L 90.93 28.52&#10;  A 0.48 0.48 0.0 0 0 90.92 29.36&#10;  L 96.29 32.39&#10;  L 90.49 35.59&#10;  Q 85.08 32.85 79.82 29.78&#10;  Q 79.08 29.34 78.29 28.59&#10;  Q 76.28 26.68 76.34 28.08&#10;  Q 75.86 23.78 79.98 21.46&#10;  Q 89.74 15.98 99.54 10.49&#10;  A 1.20 1.20 0.0 0 1 100.70 10.49&#10;  L 111.77 16.73&#10;  Z"/>
<path fill="#62a1b7" d="&#10;  M 111.77 16.73&#10;  Q 116.26 19.16 120.71 21.83&#10;  Q 123.88 23.73 123.89 27.13&#10;  Q 120.56 30.01 116.70 31.94&#10;  Q 108.47 36.06 100.23 41.01&#10;  Q 99.40 40.93 98.14 39.85&#10;  L 90.49 35.59&#10;  L 96.29 32.39&#10;  L 99.03 33.84&#10;  Q 100.11 34.41 101.18 33.81&#10;  L 108.82 29.57&#10;  Q 109.89 28.97 108.82 28.37&#10;  L 100.06 23.43&#10;  Q 105.43 19.33 111.77 16.73&#10;  Z"/>
<path fill="#fcffff" d="&#10;  M 100.06 23.43&#10;  L 108.82 28.37&#10;  Q 109.89 28.97 108.82 29.57&#10;  L 101.18 33.81&#10;  Q 100.11 34.41 99.03 33.84&#10;  L 96.29 32.39&#10;  L 90.92 29.36&#10;  A 0.48 0.48 0.0 0 1 90.93 28.52&#10;  L 100.06 23.43&#10;  Z"/>
<path fill="#335674" d="&#10;  M 90.49 35.59&#10;  L 98.14 39.85&#10;  L 81.16 51.28&#10;  Q 76.37 49.25 76.34 45.74&#10;  Q 76.27 37.14 76.34 28.08&#10;  Q 76.28 26.68 78.29 28.59&#10;  Q 79.08 29.34 79.82 29.78&#10;  Q 85.08 32.85 90.49 35.59&#10;  Z"/>
<path fill="#0f2542" d="&#10;  M 123.89 27.13&#10;  Q 123.85 36.28 123.90 45.25&#10;  Q 123.92 48.53 120.35 50.55&#10;  Q 111.06 55.78 100.88 61.45&#10;  C 99.92 61.99 98.97 61.49 98.20 60.82&#10;  L 99.60 58.75&#10;  Q 99.88 58.33 99.89 57.83&#10;  L 100.23 41.01&#10;  Q 108.47 36.06 116.70 31.94&#10;  Q 120.56 30.01 123.89 27.13&#10;  Z"/>
<path fill="#1f4160" d="&#10;  M 98.14 39.85&#10;  Q 99.40 40.93 100.23 41.01&#10;  L 99.89 57.83&#10;  Q 99.88 58.33 99.60 58.75&#10;  L 98.20 60.82&#10;  L 81.16 51.28&#10;  L 98.14 39.85&#10;  Z"/>
<path fill="#a9f3f3" d="&#10;  M 73.31 54.39&#10;  L 58.62 66.64&#10;  L 57.16 65.05&#10;  Q 56.40 64.23 56.32 65.34&#10;  L 55.80 72.73&#10;  L 42.72 79.91&#10;  Q 34.92 76.27 27.85 70.82&#10;  Q 28.50 66.36 32.74 63.99&#10;  Q 46.98 56.05 61.08 48.24&#10;  Q 61.59 47.96 62.11 48.24&#10;  L 73.31 54.39&#10;  Z"/>
<path fill="#5893ad" d="&#10;  M 153.28 56.14&#10;  L 145.05 60.29&#10;  Q 144.59 60.52 144.51 61.03&#10;  L 143.93 64.65&#10;  L 133.79 71.52&#10;  Q 134.45 69.21 135.56 68.70&#10;  L 119.23 59.42&#10;  A 0.45 0.45 0.0 0 1 119.23 58.64&#10;  L 138.04 48.25&#10;  A 1.18 1.17 45.3 0 1 139.18 48.26&#10;  L 153.28 56.14&#10;  Z"/>
<path fill="#8ae5eb" d="&#10;  M 73.31 54.39&#10;  L 80.90 58.58&#10;  A 0.49 0.49 0.0 0 1 80.91 59.44&#10;  Q 73.40 63.65 65.87 67.88&#10;  Q 65.50 68.09 65.34 68.28&#10;  A 0.65 0.65 0.0 0 0 65.52 69.28&#10;  L 74.49 74.19&#10;  C 72.37 73.72 70.45 73.39 68.51 72.31&#10;  Q 63.54 69.54 58.62 66.64&#10;  L 73.31 54.39&#10;  Z"/>
<path fill="#3b6c92" d="&#10;  M 153.28 56.14&#10;  Q 164.59 62.22 168.04 64.44&#10;  Q 171.50 66.66 172.28 70.25&#10;  Q 170.18 73.09 168.07 74.32&#10;  Q 164.31 76.52 157.53 80.15&#10;  L 144.38 72.84&#10;  L 143.93 64.65&#10;  L 144.51 61.03&#10;  Q 144.59 60.52 145.05 60.29&#10;  L 153.28 56.14&#10;  Z"/>
<path fill="#1f4160" d="&#10;  M 100.54 68.75&#10;  L 111.60 62.64&#10;  A 0.87 0.86 45.3 0 1 112.46 62.65&#10;  Q 116.89 65.14 121.86 67.87&#10;  Q 122.58 68.26 121.91 68.73&#10;  Q 121.38 69.09 100.73 80.61&#10;  A 1.35 1.35 0.0 0 1 99.41 80.61&#10;  L 78.07 68.65&#10;  A 0.35 0.35 0.0 0 1 78.07 68.04&#10;  L 87.68 62.67&#10;  A 0.95 0.93 44.4 0 1 88.57 62.67&#10;  L 99.61 68.75&#10;  A 0.96 0.94 44.4 0 0 100.54 68.75&#10;  Z"/>
<path fill="#76bdca" d="&#10;  M 58.62 66.64&#10;  Q 63.54 69.54 68.51 72.31&#10;  C 70.45 73.39 72.37 73.72 74.49 74.19&#10;  L 99.86 88.59&#10;  Q 100.08 88.71 100.29 88.59&#10;  L 135.56 68.70&#10;  Q 134.45 69.21 133.79 71.52&#10;  L 100.33 90.89&#10;  L 81.83 80.36&#10;  Q 81.40 80.11 80.94 80.33&#10;  L 67.98 86.67&#10;  Q 63.23 84.05 58.67 81.01&#10;  Q 55.84 79.14 55.93 76.77&#10;  Q 55.99 74.83 55.80 72.73&#10;  L 56.32 65.34&#10;  Q 56.40 64.23 57.16 65.05&#10;  L 58.62 66.64&#10;  Z"/>
<path fill="#1f4160" d="&#10;  M 143.93 64.65&#10;  L 144.38 72.84&#10;  C 144.30 78.13 144.42 79.92 139.48 82.69&#10;  Q 119.69 93.78 99.99 104.65&#10;  L 100.33 90.89&#10;  L 133.79 71.52&#10;  L 143.93 64.65&#10;  Z"/>
<path fill="#0f2542" d="&#10;  M 172.28 70.25&#10;  Q 172.36 79.32 172.35 87.91&#10;  Q 172.35 92.38 171.27 94.43&#10;  Q 169.67 97.45 166.38 99.27&#10;  Q 132.83 117.78 100.56 135.70&#10;  Q 100.08 135.97 99.59 135.70&#10;  L 36.69 100.83&#10;  Q 42.25 93.13 50.89 88.72&#10;  L 52.45 89.53&#10;  C 66.82 98.52 81.98 106.38 96.71 114.52&#10;  Q 98.30 115.40 100.18 116.04&#10;  A 1.05 1.05 0.0 0 0 101.55 114.81&#10;  L 100.83 111.66&#10;  L 157.53 80.15&#10;  Q 164.31 76.52 168.07 74.32&#10;  Q 170.18 73.09 172.28 70.25&#10;  Z"/>
<path fill="#335674" d="&#10;  M 42.72 79.91&#10;  L 56.48 87.65&#10;  L 52.45 89.53&#10;  L 50.89 88.72&#10;  L 29.34 76.69&#10;  Q 28.88 76.43 28.49 76.79&#10;  Q 27.84 77.38 27.89 79.06&#10;  L 27.85 70.82&#10;  Q 34.92 76.27 42.72 79.91&#10;  Z"/>
<path fill="#fcffff" d="&#10;  M 55.80 72.73&#10;  Q 55.99 74.83 55.93 76.77&#10;  Q 55.84 79.14 58.67 81.01&#10;  Q 63.23 84.05 67.98 86.67&#10;  L 99.99 104.65&#10;  Q 119.69 93.78 139.48 82.69&#10;  C 144.42 79.92 144.30 78.13 144.38 72.84&#10;  L 157.53 80.15&#10;  L 100.83 111.66&#10;  Q 100.11 112.05 99.39 111.64&#10;  Q 78.00 99.52 56.48 87.65&#10;  L 42.72 79.91&#10;  L 55.80 72.73&#10;  Z"/>
<path fill="#1f4160" d="&#10;  M 50.89 88.72&#10;  Q 42.25 93.13 36.69 100.83&#10;  C 33.73 99.31 30.32 97.45 28.80 94.39&#10;  Q 27.90 92.56 27.86 89.00&#10;  Q 27.80 84.01 27.89 79.06&#10;  Q 27.84 77.38 28.49 76.79&#10;  Q 28.88 76.43 29.34 76.69&#10;  L 50.89 88.72&#10;  Z"/>
<path fill="#5893ad" d="&#10;  M 100.33 90.89&#10;  L 99.99 104.65&#10;  L 67.98 86.67&#10;  L 80.94 80.33&#10;  Q 81.40 80.11 81.83 80.36&#10;  L 100.33 90.89&#10;  Z"/>
<path fill="#1f4160" d="&#10;  M 56.48 87.65&#10;  Q 78.00 99.52 99.39 111.64&#10;  Q 100.11 112.05 100.83 111.66&#10;  L 101.55 114.81&#10;  A 1.05 1.05 0.0 0 1 100.18 116.04&#10;  Q 98.30 115.40 96.71 114.52&#10;  C 81.98 106.38 66.82 98.52 52.45 89.53&#10;  L 56.48 87.65&#10;  Z"/>
<path fill="#8ae5eb" d="&#10;  M 57.21 119.57&#10;  L 55.83 126.63&#10;  L 43.11 133.65&#10;  A 0.36 0.36 0.0 0 0 43.10 134.28&#10;  L 47.53 136.81&#10;  L 47.27 139.26&#10;  Q 42.88 137.56 38.57 135.60&#10;  C 34.69 133.83 31.42 131.39 27.88 128.98&#10;  Q 26.80 121.20 32.69 117.96&#10;  Q 37.88 115.10 42.57 112.54&#10;  Q 43.46 112.05 44.35 112.54&#10;  L 57.21 119.57&#10;  Z"/>
<path fill="#2d62ad" d="&#10;  M 172.33 126.96&#10;  Q 169.00 130.93 164.70 133.45&#10;  Q 132.52 152.23 100.07 170.37&#10;  L 100.39 166.57&#10;  L 156.90 134.40&#10;  A 0.47 0.47 0.0 0 0 156.90 133.58&#10;  L 145.01 127.02&#10;  A 0.29 0.29 0.0 0 0 144.58 127.26&#10;  L 144.42 129.58&#10;  L 143.94 119.11&#10;  L 156.00 112.52&#10;  A 1.50 1.48 44.6 0 1 157.41 112.52&#10;  Q 162.26 115.14 167.22 118.04&#10;  Q 172.50 121.12 172.33 126.96&#10;  Z"/>
<path fill="#214f8a" d="&#10;  M 143.94 119.11&#10;  L 144.42 129.58&#10;  C 144.95 134.74 141.53 135.96 136.96 138.55&#10;  Q 118.38 149.05 99.77 159.55&#10;  L 100.01 143.37&#10;  L 143.94 119.11&#10;  Z"/>
<path fill="#5dbbbe" d="&#10;  M 85.48 135.18&#10;  L 70.74 142.78&#10;  Q 65.17 139.72 59.64 136.52&#10;  C 55.16 133.93 56.15 131.12 55.83 126.63&#10;  L 57.21 119.57&#10;  L 85.48 135.18&#10;  Z"/>
<path fill="#fcffff" d="&#10;  M 55.83 126.63&#10;  C 56.15 131.12 55.16 133.93 59.64 136.52&#10;  Q 65.17 139.72 70.74 142.78&#10;  L 84.20 150.47&#10;  L 99.77 159.55&#10;  Q 118.38 149.05 136.96 138.55&#10;  C 141.53 135.96 144.95 134.74 144.42 129.58&#10;  L 144.58 127.26&#10;  A 0.29 0.29 0.0 0 1 145.01 127.02&#10;  L 156.90 133.58&#10;  A 0.47 0.47 0.0 0 1 156.90 134.40&#10;  L 100.39 166.57&#10;  L 90.53 161.11&#10;  L 79.19 154.77&#10;  L 65.50 146.99&#10;  L 47.53 136.81&#10;  L 43.10 134.28&#10;  A 0.36 0.36 0.0 0 1 43.11 133.65&#10;  L 55.83 126.63&#10;  Z"/>
<path fill="#214f8a" d="&#10;  M 172.33 126.96&#10;  Q 172.34 134.64 172.31 142.21&#10;  Q 172.30 146.06 171.24 148.12&#10;  Q 169.75 151.01 166.87 152.65&#10;  Q 144.98 165.16 99.86 190.24&#10;  L 100.07 170.37&#10;  Q 132.52 152.23 164.70 133.45&#10;  Q 169.00 130.93 172.33 126.96&#10;  Z"/>
<path fill="#77e2d2" d="&#10;  M 47.27 139.26&#10;  Q 50.13 141.00 51.83 143.10&#10;  A 2.57 2.56 -41.6 0 1 51.62 146.56&#10;  C 47.90 150.15 41.35 152.55 36.55 154.43&#10;  C 31.80 152.29 27.87 148.91 27.83 143.39&#10;  Q 27.77 136.24 27.88 128.98&#10;  C 31.42 131.39 34.69 133.83 38.57 135.60&#10;  Q 42.88 137.56 47.27 139.26&#10;  Z"/>
<path fill="#4ca0b1" d="&#10;  M 85.48 135.18&#10;  L 96.30 141.25&#10;  L 84.20 150.47&#10;  L 70.74 142.78&#10;  L 85.48 135.18&#10;  Z"/>
<path fill="#76bdca" d="&#10;  M 65.50 146.99&#10;  L 42.23 157.60&#10;  L 36.55 154.43&#10;  C 41.35 152.55 47.90 150.15 51.62 146.56&#10;  A 2.57 2.56 -41.6 0 0 51.83 143.10&#10;  Q 50.13 141.00 47.27 139.26&#10;  L 47.53 136.81&#10;  L 65.50 146.99&#10;  Z"/>
<path fill="#3f88a2" d="&#10;  M 100.01 143.37&#10;  L 99.77 159.55&#10;  L 84.20 150.47&#10;  L 96.30 141.25&#10;  L 100.01 143.37&#10;  Z"/>
<path fill="#5dbbbe" d="&#10;  M 79.19 154.77&#10;  Q 81.66 159.01 78.74 161.33&#10;  Q 72.01 166.65 62.12 168.87&#10;  L 42.23 157.60&#10;  L 65.50 146.99&#10;  L 79.19 154.77&#10;  Z"/>
<path fill="#4ca0b1" d="&#10;  M 79.19 154.77&#10;  L 90.53 161.11&#10;  C 91.23 163.29 91.85 165.49 89.91 166.68&#10;  Q 82.82 170.99 73.16 175.10&#10;  L 62.12 168.87&#10;  Q 72.01 166.65 78.74 161.33&#10;  Q 81.66 159.01 79.19 154.77&#10;  Z"/>
<path fill="#3f88a2" d="&#10;  M 90.53 161.11&#10;  L 100.39 166.57&#10;  L 100.07 170.37&#10;  L 99.86 190.24&#10;  L 73.16 175.10&#10;  Q 82.82 170.99 89.91 166.68&#10;  C 91.85 165.49 91.23 163.29 90.53 161.11&#10;  Z"/>
</svg>