<svg xmlns="http://www.w3.org/2000/svg" version="1.1" viewBox="0.00 0.00 364.00 452.00" width="364.00" height="452.00">
<g stroke-width="2.00" fill="none" stroke-linecap="butt">
<path stroke="#76d0d2" d="&#10;  M 211.08 16.70&#10;  Q 197.19 22.58 185.44 30.94&#10;  Q 184.42 31.67 182.42 33.88"/>
<path stroke="#76d0d2" d="&#10;  M 172.38 55.78&#10;  L 158.23 63.80"/>
<path stroke="#5da4ae" d="&#10;  M 158.23 63.80&#10;  Q 145.80 57.60 133.21 50.25&#10;  Q 131.94 49.51 128.32 46.62&#10;  Q 125.63 44.47 122.64 43.61"/>
<path stroke="#5290a1" d="&#10;  M 241.94 42.72&#10;  Q 237.52 46.09 233.11 49.11&#10;  Q 228.72 52.13 223.91 54.56&#10;  Q 202.05 65.60 182.90 77.17&#10;  Q 182.34 77.51 181.78 77.19&#10;  L 158.23 63.80"/>
<path stroke="#60a3b2" d="&#10;  M 315.27 115.08&#10;  L 294.50 125.58&#10;  A 2.52 2.51 81.2 0 0 293.15 127.44&#10;  L 291.74 136.59"/>
<path stroke="#5290a1" d="&#10;  M 291.74 136.59&#10;  L 269.12 151.88"/>
<path stroke="#76d0d2" d="&#10;  M 269.12 151.88&#10;  L 266.13 149.23"/>
<path stroke="#47778e" d="&#10;  M 362.90 150.71&#10;  Q 357.04 157.75 347.17 163.40&#10;  Q 337.19 169.12 326.92 174.30&#10;  Q 326.17 174.68 325.64 175.00"/>
<path stroke="#47778e" d="&#10;  M 293.04 157.61&#10;  L 291.74 136.59"/>
<path stroke="#5da4ae" d="&#10;  M 269.12 151.88&#10;  L 182.90 202.08"/>
<path stroke="#76d0d2" d="&#10;  M 182.90 202.08&#10;  Q 160.47 189.30 137.86 176.38&#10;  Q 135.59 175.09 132.36 176.60&#10;  Q 117.25 183.68 101.93 191.91"/>
<path stroke="#5290a1" d="&#10;  M 181.89 236.60&#10;  L 182.90 202.08"/>
<path stroke="#9eebe4" d="&#10;  M 114.10 158.24&#10;  Q 109.71 158.82 105.76 156.76&#10;  Q 95.58 151.43 80.00 142.20&#10;  C 77.59 140.78 76.11 138.94 74.24 137.03&#10;  A 0.80 0.80 0.0 0 0 72.87 137.51&#10;  L 71.00 157.56"/>
<path stroke="#7aaab3" d="&#10;  M 39.04 174.64&#10;  Q 23.21 167.60 8.77 157.22&#10;  Q 3.72 153.58 1.30 152.12"/>
<path stroke="#92d7d7" d="&#10;  M 75.01 273.79&#10;  Q 73.10 282.80 71.50 291.54&#10;  Q 71.45 291.79 71.33 291.90&#10;  Q 71.19 292.04 70.96 292.13"/>
<path stroke="#9eebe4" d="&#10;  M 51.18 316.94&#10;  L 49.90 322.19&#10;  Q 49.78 322.70 49.28 322.52&#10;  Q 35.97 317.59 24.21 311.60&#10;  Q 19.67 309.29 12.50 304.52&#10;  Q 7.01 300.86 1.23 297.35"/>
<path stroke="#76d0d2" d="&#10;  M 95.72 342.23&#10;  L 37.46 369.07"/>
<path stroke="#60a3b2" d="&#10;  M 172.93 327.91&#10;  L 142.54 351.42"/>
<path stroke="#47778e" d="&#10;  M 362.88 292.56&#10;  Q 353.40 302.81 342.44 309.20&#10;  Q 263.60 355.14 183.97 399.69&#10;  Q 182.26 400.64 182.22 402.00&#10;  Q 181.83 415.39 181.93 448.93&#10;  Q 181.93 449.77 180.97 450.17"/>
<path stroke="#60a3b2" d="&#10;  M 115.43 413.11&#10;  Q 115.85 412.49 116.30 412.30&#10;  Q 136.91 403.42 156.26 392.04&#10;  Q 160.95 389.28 159.81 383.99&#10;  Q 159.05 380.45 159.12 377.92"/>
<path stroke="#47778e" d="&#10;  M 293.41 293.17&#10;  L 291.79 272.55"/>
<path stroke="#47778e" d="&#10;  M 181.52 373.87&#10;  L 182.07 333.04"/>
</g>
<path fill="#81e4df" d="&#10;  M 211.08 16.70&#10;  Q 197.19 22.58 185.44 30.94&#10;  Q 184.42 31.67 182.42 33.88&#10;  L 159.82 46.23&#10;  A 1.30 1.30 0.0 0 0 159.80 48.50&#10;  L 172.38 55.78&#10;  L 158.23 63.80&#10;  Q 145.80 57.60 133.21 50.25&#10;  Q 131.94 49.51 128.32 46.62&#10;  Q 125.63 44.47 122.64 43.61&#10;  Q 122.71 33.07 131.92 28.14&#10;  Q 150.12 18.40 173.88 4.63&#10;  Q 176.84 2.91 180.44 1.37&#10;  C 183.47 0.07 187.51 2.89 190.14 4.41&#10;  Q 200.20 10.21 211.08 16.70&#10;  Z"/>
<path fill="#6abcc4" d="&#10;  M 241.94 42.72&#10;  Q 237.52 46.09 233.11 49.11&#10;  Q 228.72 52.13 223.91 54.56&#10;  Q 202.05 65.60 182.90 77.17&#10;  Q 182.34 77.51 181.78 77.19&#10;  L 158.23 63.80&#10;  L 172.38 55.78&#10;  Q 175.95 57.62 180.20 59.56&#10;  C 181.28 60.05 182.60 60.21 183.70 59.72&#10;  Q 194.10 55.13 204.51 48.44&#10;  A 1.34 1.34 0.0 0 0 204.44 46.14&#10;  L 182.42 33.88&#10;  Q 184.42 31.67 185.44 30.94&#10;  Q 197.19 22.58 211.08 16.70&#10;  Q 221.14 22.08 231.96 28.29&#10;  Q 241.05 33.51 241.94 42.72&#10;  Z"/>
<path fill="#39637d" d="&#10;  M 241.94 42.72&#10;  Q 241.97 63.50 241.91 83.81&#10;  Q 241.88 91.34 240.48 94.05&#10;  Q 238.05 98.76 233.21 101.43&#10;  Q 206.92 115.96 184.20 128.82&#10;  C 181.22 130.51 177.75 127.48 175.20 126.03&#10;  Q 159.24 116.96 143.18 108.08&#10;  Q 137.32 104.84 131.90 102.10&#10;  C 126.94 99.58 123.01 95.26 122.86 89.25&#10;  Q 122.30 66.87 122.64 43.61&#10;  Q 125.63 44.47 128.32 46.62&#10;  Q 131.94 49.51 133.21 50.25&#10;  Q 145.80 57.60 158.23 63.80&#10;  L 181.78 77.19&#10;  Q 182.34 77.51 182.90 77.17&#10;  Q 202.05 65.60 223.91 54.56&#10;  Q 228.72 52.13 233.11 49.11&#10;  Q 237.52 46.09 241.94 42.72&#10;  Z"/>
<path fill="#6abcc4" d="&#10;  M 315.27 115.08&#10;  L 294.50 125.58&#10;  A 2.52 2.51 81.2 0 0 293.15 127.44&#10;  L 291.74 136.59&#10;  L 269.12 151.88&#10;  L 266.13 149.23&#10;  L 269.02 147.57&#10;  A 1.00 1.00 0.0 0 0 269.03 145.84&#10;  Q 260.23 140.56 251.06 135.64&#10;  C 243.76 131.72 236.93 127.59 230.02 123.31&#10;  Q 229.37 122.91 229.86 122.31&#10;  Q 230.93 121.00 232.13 120.32&#10;  Q 245.71 112.59 275.33 96.60&#10;  Q 279.07 94.57 282.24 96.42&#10;  Q 298.42 105.83 315.27 115.08&#10;  Z"/>
<path fill="#baf1e9" d="&#10;  M 114.10 158.24&#10;  Q 109.71 158.82 105.76 156.76&#10;  Q 95.58 151.43 80.00 142.20&#10;  C 77.59 140.78 76.11 138.94 74.24 137.03&#10;  A 0.80 0.80 0.0 0 0 72.87 137.51&#10;  L 71.00 157.56&#10;  L 39.04 174.64&#10;  Q 23.21 167.60 8.77 157.22&#10;  Q 3.72 153.58 1.30 152.12&#10;  Q 3.74 140.55 13.82 134.83&#10;  Q 47.88 115.48 82.27 96.73&#10;  C 84.56 95.48 86.92 95.52 89.28 96.76&#10;  Q 113.28 109.35 133.74 121.18&#10;  A 1.49 1.49 0.0 0 1 134.32 121.79&#10;  Q 135.01 123.14 134.43 123.47&#10;  Q 115.08 134.84 96.29 144.97&#10;  A 2.58 2.51 -84.8 0 0 95.52 145.63&#10;  Q 94.31 147.21 95.91 148.07&#10;  Q 104.71 152.78 114.10 158.24&#10;  Z"/>
<path fill="#558a9f" d="&#10;  M 362.90 150.71&#10;  Q 357.04 157.75 347.17 163.40&#10;  Q 337.19 169.12 326.92 174.30&#10;  Q 326.17 174.68 325.64 175.00&#10;  L 293.04 157.61&#10;  L 291.74 136.59&#10;  L 293.15 127.44&#10;  A 2.52 2.51 81.2 0 1 294.50 125.58&#10;  L 315.27 115.08&#10;  Q 327.57 121.77 347.54 133.21&#10;  Q 352.43 136.02 355.88 138.85&#10;  Q 361.24 143.25 362.90 150.71&#10;  Z"/>
<path fill="#39637d" d="&#10;  M 181.52 146.46&#10;  A 2.19 2.17 -45.9 0 0 183.49 146.42&#10;  L 210.32 131.85&#10;  A 3.75 3.74 45.1 0 1 213.92 131.86&#10;  Q 225.03 138.01 237.21 145.10&#10;  Q 237.65 145.35 237.69 145.92&#10;  A 0.78 0.77 -16.7 0 1 237.30 146.64&#10;  Q 210.51 162.20 183.89 176.55&#10;  A 3.56 3.56 0.0 0 1 180.51 176.55&#10;  Q 153.94 162.20 127.23 146.68&#10;  A 0.98 0.97 -44.7 0 1 127.24 144.99&#10;  L 151.14 131.44&#10;  Q 151.61 131.18 152.14 131.31&#10;  Q 155.03 132.03 157.50 133.49&#10;  Q 169.33 140.49 181.52 146.46&#10;  Z"/>
<path fill="#81e4df" d="&#10;  M 114.10 158.24&#10;  Q 117.04 159.12 119.14 160.35&#10;  Q 150.12 178.44 180.80 195.63&#10;  Q 182.29 196.47 183.78 195.63&#10;  L 266.13 149.23&#10;  L 269.12 151.88&#10;  L 182.90 202.08&#10;  Q 160.47 189.30 137.86 176.38&#10;  Q 135.59 175.09 132.36 176.60&#10;  Q 117.25 183.68 101.93 191.91&#10;  Q 90.36 185.33 77.92 176.88&#10;  Q 72.02 172.88 71.88 167.04&#10;  Q 71.71 160.19 71.00 157.56&#10;  L 72.87 137.51&#10;  A 0.80 0.80 0.0 0 1 74.24 137.03&#10;  C 76.11 138.94 77.59 140.78 80.00 142.20&#10;  Q 95.58 151.43 105.76 156.76&#10;  Q 109.71 158.82 114.10 158.24&#10;  Z"/>
<path fill="#39637d" d="&#10;  M 291.74 136.59&#10;  L 293.04 157.61&#10;  Q 293.15 160.07 293.03 161.91&#10;  C 292.51 170.05 290.84 175.65 283.33 180.09&#10;  Q 266.58 189.99 252.73 197.46&#10;  Q 243.58 202.39 235.22 207.10&#10;  Q 208.97 221.90 181.89 236.60&#10;  L 182.90 202.08&#10;  L 269.12 151.88&#10;  L 291.74 136.59&#10;  Z"/>
<path fill="#39637d" d="&#10;  M 362.90 150.71&#10;  Q 363.02 172.30 363.03 193.02&#10;  Q 363.04 204.28 361.56 208.35&#10;  Q 358.17 217.72 348.53 223.04&#10;  C 334.42 230.84 321.28 237.81 307.81 245.42&#10;  C 266.90 268.53 225.41 290.98 183.21 314.59&#10;  A 2.08 2.08 0.0 0 1 181.19 314.59&#10;  Q 156.73 300.97 132.46 287.65&#10;  Q 124.00 283.01 114.98 277.83&#10;  C 99.14 268.74 83.44 260.66 67.83 251.61&#10;  C 51.44 242.10 33.38 232.97 16.49 223.03&#10;  C 7.44 217.70 1.92 211.24 1.76 200.25&#10;  Q 1.41 176.09 1.30 152.12&#10;  Q 3.72 153.58 8.77 157.22&#10;  Q 23.21 167.60 39.04 174.64&#10;  Q 40.79 175.70 42.03 176.53&#10;  Q 43.58 177.57 45.03 178.37&#10;  Q 94.77 205.75 132.41 226.88&#10;  Q 160.81 242.83 180.23 253.54&#10;  Q 182.06 254.55 183.82 253.82&#10;  Q 187.61 252.25 193.81 248.85&#10;  C 210.49 239.71 225.08 231.22 240.70 222.64&#10;  C 267.80 207.75 296.67 191.12 321.84 177.83&#10;  Q 324.10 176.64 325.64 175.00&#10;  Q 326.17 174.68 326.92 174.30&#10;  Q 337.19 169.12 347.17 163.40&#10;  Q 357.04 157.75 362.90 150.71&#10;  Z"/>
<path fill="#6abcc4" d="&#10;  M 182.90 202.08&#10;  L 181.89 236.60&#10;  L 101.93 191.91&#10;  Q 117.25 183.68 132.36 176.60&#10;  Q 135.59 175.09 137.86 176.38&#10;  Q 160.47 189.30 182.90 202.08&#10;  Z"/>
<path fill="#baf1e9" d="&#10;  M 75.01 273.79&#10;  Q 73.10 282.80 71.50 291.54&#10;  Q 71.45 291.79 71.33 291.90&#10;  Q 71.19 292.04 70.96 292.13&#10;  L 40.54 308.78&#10;  Q 39.21 309.51 40.09 310.76&#10;  Q 40.34 311.12 41.50 311.78&#10;  Q 46.23 314.47 51.18 316.94&#10;  L 49.90 322.19&#10;  Q 49.78 322.70 49.28 322.52&#10;  Q 35.97 317.59 24.21 311.60&#10;  Q 19.67 309.29 12.50 304.52&#10;  Q 7.01 300.86 1.23 297.35&#10;  Q 0.98 292.35 1.69 286.97&#10;  C 2.99 277.09 8.46 272.05 17.39 267.47&#10;  Q 25.53 263.30 33.82 258.66&#10;  C 36.07 257.40 39.55 255.42 42.15 256.19&#10;  Q 44.13 256.78 45.76 257.70&#10;  Q 60.60 266.05 75.01 273.79&#10;  Z"/>
<path fill="#558a9f" d="&#10;  M 362.88 292.56&#10;  Q 353.40 302.81 342.44 309.20&#10;  Q 263.60 355.14 183.97 399.69&#10;  Q 182.26 400.64 182.22 402.00&#10;  Q 181.83 415.39 181.93 448.93&#10;  Q 181.93 449.77 180.97 450.17&#10;  L 115.43 413.11&#10;  Q 115.85 412.49 116.30 412.30&#10;  Q 136.91 403.42 156.26 392.04&#10;  Q 160.95 389.28 159.81 383.99&#10;  Q 159.05 380.45 159.12 377.92&#10;  L 181.49 390.53&#10;  A 3.03 3.02 -45.1 0 0 184.47 390.52&#10;  L 324.22 311.00&#10;  Q 325.44 310.31 324.55 309.21&#10;  Q 324.35 308.96 323.35 308.42&#10;  Q 309.67 300.98 299.27 295.01&#10;  Q 295.57 292.88 293.41 293.17&#10;  L 291.79 272.55&#10;  Q 306.67 264.38 321.75 256.18&#10;  Q 322.60 255.72 324.51 256.06&#10;  Q 325.66 256.27 327.04 257.00&#10;  Q 340.83 264.33 350.68 270.34&#10;  Q 363.47 278.15 362.88 292.56&#10;  Z"/>
<path fill="#39637d" d="&#10;  M 291.79 272.55&#10;  L 293.41 293.17&#10;  Q 293.24 296.85 293.15 300.41&#10;  Q 293.04 304.99 292.00 307.46&#10;  Q 290.00 312.22 285.42 315.16&#10;  C 277.72 320.10 268.27 324.77 259.61 329.72&#10;  C 238.75 341.64 217.74 353.27 196.94 365.27&#10;  Q 189.53 369.54 181.52 373.87&#10;  L 182.07 333.04&#10;  L 291.79 272.55&#10;  Z"/>
<path fill="#6abcc4" d="&#10;  M 172.93 327.91&#10;  L 142.54 351.42&#10;  Q 126.66 342.74 109.89 332.70&#10;  C 100.49 327.07 91.10 322.14 81.73 316.78&#10;  Q 75.36 313.14 73.18 308.12&#10;  C 71.41 304.07 71.69 297.76 71.35 293.01&#10;  Q 71.30 292.35 70.96 292.13&#10;  Q 71.19 292.04 71.33 291.90&#10;  Q 71.45 291.79 71.50 291.54&#10;  Q 73.10 282.80 75.01 273.79&#10;  L 172.93 327.91&#10;  Z"/>
<path fill="#39637d" d="&#10;  M 362.88 292.56&#10;  Q 363.53 318.87 362.94 334.49&#10;  Q 362.58 343.88 356.81 350.61&#10;  Q 353.89 354.03 345.47 358.88&#10;  C 300.68 384.68 256.38 409.07 211.77 434.01&#10;  C 202.12 439.40 192.45 445.26 182.36 450.20&#10;  Q 181.92 450.42 181.45 450.29&#10;  L 180.97 450.17&#10;  Q 181.93 449.77 181.93 448.93&#10;  Q 181.83 415.39 182.22 402.00&#10;  Q 182.26 400.64 183.97 399.69&#10;  Q 263.60 355.14 342.44 309.20&#10;  Q 353.40 302.81 362.88 292.56&#10;  Z"/>
<path fill="#81e4df" d="&#10;  M 51.18 316.94&#10;  L 95.72 342.23&#10;  L 37.46 369.07&#10;  Q 28.12 363.99 16.87 357.63&#10;  C 8.20 352.73 1.97 344.78 1.59 334.50&#10;  Q 0.91 316.17 1.23 297.35&#10;  Q 7.01 300.86 12.50 304.52&#10;  Q 19.67 309.29 24.21 311.60&#10;  Q 35.97 317.59 49.28 322.52&#10;  Q 49.78 322.70 49.90 322.19&#10;  L 51.18 316.94&#10;  Z"/>
<path fill="#558a9f" d="&#10;  M 182.07 333.04&#10;  L 181.52 373.87&#10;  L 142.54 351.42&#10;  L 172.93 327.91&#10;  L 182.07 333.04&#10;  Z"/>
<path fill="#6abcc4" d="&#10;  M 159.12 377.92&#10;  Q 159.05 380.45 159.81 383.99&#10;  Q 160.95 389.28 156.26 392.04&#10;  Q 136.91 403.42 116.30 412.30&#10;  Q 115.85 412.49 115.43 413.11&#10;  L 37.46 369.07&#10;  L 95.72 342.23&#10;  L 159.12 377.92&#10;  Z"/>
</svg>